P3
8 8
255
0 255 0 255 0 255 0 255
0 255 0 255 0 255 0 255
0 255 0 255 0 255 0 255
0 255 0 255 0 255 0 255
0 255 0 255 0 255 0 255
0 255 0 255 0 255 0 255
0 255 0 255 0 255 0 255
0 255 0 255 0 255 0 255
255 255 255 255 255 255 255 255
255 255 255 255 255 255 255 255
255 255 255 255 255 255 255 255
255 255 255 255 255 255 255 255
64 64 64 64 64 64 64 64
64 64 64 64 64 64 64 64
64 64 64 64 64 64 64 64
64 64 64 64 64 64 64 64
64 64 64 64 64 64 64 64
64 64 64 64 64 64 64 64
64 64 64 64 64 64 64 64
64 64 64 64 64 64 64 64
255 255 255 255 255 255 255 255
255 255 255 255 255 255 255 255
255 255 255 255 255 255 255 255
255 255 255 255 255 255 255 255
 